HIERARCHY
ROOT Hips
{
  OFFSET 0 0 0
  CHANNELS 6 Xposition Yposition Zposition Zrotation Yrotation Xrotation
  JOINT LeftThigh
  {
    OFFSET 8.409438 0 -5.917753
    CHANNELS 3 Zrotation Yrotation Xrotation
    JOINT LeftLeg
    {
      OFFSET 0 0 -42.358652
      CHANNELS 3 Zrotation Yrotation Xrotation
      JOINT LeftFoot
      {
        OFFSET 0 0 -39.357303
        CHANNELS 3 Zrotation Yrotation Xrotation
      }
    }
  }
  JOINT RightThigh
  {
    OFFSET -8.409438 0 -5.917753
    CHANNELS 3 Zrotation Yrotation Xrotation
    JOINT RightLeg
    {
      OFFSET 0 0 -42.358652
      CHANNELS 3 Zrotation Yrotation Xrotation
      JOINT RightFoot
      {
        OFFSET 0 0 -39.357303
        CHANNELS 3 Zrotation Yrotation Xrotation
      }
    }
  }
  JOINT SpineLow
  {
    OFFSET 0 0 4.719101
    CHANNELS 3 Zrotation Yrotation Xrotation
    JOINT SpineMid
    {
      OFFSET 0 0 12.899191
      CHANNELS 3 Zrotation Yrotation Xrotation
      JOINT Chest
      {
        OFFSET 0 0 12.899191
        CHANNELS 3 Zrotation Yrotation Xrotation
        JOINT LeftShoulder
        {
          OFFSET 7.550562 1.41573 9.438202
          CHANNELS 3 Zrotation Yrotation Xrotation
          JOINT LeftArm
          {
            OFFSET 9.155056 0 4.247191
            CHANNELS 3 Zrotation Yrotation Xrotation
            JOINT LeftForearm
            {
              OFFSET 0 0 25.771955
              CHANNELS 3 Zrotation Yrotation Xrotation
              JOINT LeftHand
              {
                OFFSET 0 0 25.197169
                CHANNELS 3 Zrotation Yrotation Xrotation
              }
            }
          }
        }
        JOINT RightShoulder
        {
          OFFSET -7.550562 1.41573 9.438202
          CHANNELS 3 Zrotation Yrotation Xrotation
          JOINT RightArm
          {
            OFFSET -9.155056 0 4.247191
            CHANNELS 3 Zrotation Yrotation Xrotation
            JOINT RightForearm
            {
              OFFSET 0 0 -25.771955
              CHANNELS 3 Zrotation Yrotation Xrotation
              JOINT RightHand
              {
                OFFSET 0 0 -25.197169
                CHANNELS 3 Zrotation Yrotation Xrotation
              }
            }
          }
        }
        JOINT Neck
        {
          OFFSET 0 0 15.101124
          CHANNELS 3 Zrotation Yrotation Xrotation
          JOINT Head
          {
            OFFSET 0 0 11.325843
            CHANNELS 3 Zrotation Yrotation Xrotation
            End Site
            {
              OFFSET 0 0 14.157303
            }
          }
        }
      }
    }
  }
}
MOTION
Frames: 7
Frame Time: 0.0
0.0  93.25843  0.0  70.997266  -45.503217  -153.748631  31.295141  -46.486236  -55.960975  -15.535033  12.163274  35.859914  4.827977  -1.976822  -2.016958  20.65224  26.222523  -8.011461  11.536294  12.70545  25.908114  -2.211945  3.927524  1.61886  4.23424  4.00158  3.985146  12.29107  10.162679  11.644381  12.29107  10.162679  11.644382  -8.150783  26.941566  9.578768  -178.722293  52.729265  -152.591891  -25.463316  -5.160253  111.545377  72.138502  -23.724026  2.494782  19.673283  -8.436628  20.167141  171.236267  65.274359  120.010974  -6.484898  -33.441334  -123.487503  64.479117  5.161215  -7.850897  12.111478  18.762069  18.300614  8.429044  14.450831  13.222116  
0.0  93.25843  0.0  69.585908  -44.997887  -152.094918  27.031158  -50.704298  -51.476836  -15.217993  11.160518  26.830777  6.733504  -2.124462  -2.428548  17.617024  26.263739  -9.394911  9.565024  14.472198  25.450064  0.436227  3.622355  1.356157  3.965919  3.930641  3.888663  11.526162  10.036735  11.325468  11.526161  10.036735  11.325468  -8.023071  26.845242  9.559477  179.605042  52.552694  -154.105116  -25.653026  -5.106176  111.000067  72.350655  -23.63175  2.710323  19.39035  -8.370479  20.079371  170.054388  65.686869  118.918539  -6.321355  -33.537573  -123.027924  64.468821  5.12435  -7.67639  12.09894  19.089296  18.640662  8.395222  14.703246  13.463557  
0.0  93.25843  0.0  69.068794  -45.124756  -151.490933  22.033207  -57.62725  -47.288601  -12.091186  12.438655  19.315659  8.959302  -2.189502  -1.704382  13.674502  26.063309  -11.479097  9.506331  15.277028  25.263716  2.4712  3.535075  0.880194  3.859877  3.816057  3.756899  11.193011  9.767779  10.925163  11.19301  9.767779  10.925163  -7.810971  26.721781  9.846084  177.973118  52.277585  -155.576398  -25.839736  -5.01841  110.37347  72.461321  -23.559998  3.000133  18.966594  -8.441661  20.467901  169.122505  66.326657  118.045386  -5.932573  -33.562356  -122.575839  64.334978  5.114337  -7.325582  12.147975  19.307515  19.171281  8.405424  14.879885  13.848389  
0.0  93.25843  0.0  69.811097  -45.623787  -152.643436  9.323315  -63.696371  -34.838435  -5.565449  12.391887  14.045312  10.791181  -2.529535  -1.111538  10.295504  25.825839  -13.12809  11.125448  15.264816  25.44469  3.67209  3.475326  0.619545  3.927964  3.696492  3.683545  11.345653  9.444612  10.708969  11.345652  9.444612  10.70897  -7.598071  26.659685  10.520026  176.757456  51.92411  -156.721634  -26.01661  -4.892754  109.78552  72.557399  -23.572424  3.256638  18.424641  -8.556507  21.333199  168.896477  67.128008  117.83201  -5.196624  -33.686856  -122.228896  64.077322  5.167071  -6.849951  12.268872  19.457877  19.786901  8.468954  15.009928  14.296368  
0.0  93.25843  0.0  70.690634  -45.631765  -154.4157  -9.797677  -66.182298  -15.549525  4.126672  11.295171  10.901999  10.897526  -2.740986  -0.818546  7.086315  26.153481  -14.494163  13.40027  14.507269  26.049209  3.899124  3.461766  0.402032  3.932935  3.647814  3.787523  11.363537  9.293196  10.984496  11.363537  9.293196  10.984497  -7.723173  26.562117  10.619617  175.980824  51.60838  -157.529229  -26.256612  -4.760167  109.227697  72.68316  -23.762461  3.511094  18.275017  -8.673677  22.026727  169.693174  67.76529  118.853946  -4.346485  -33.998826  -122.017228  63.768511  5.220648  -6.260449  12.333779  19.678129  19.928439  8.502566  15.180464  14.39107  
0.0  93.25843  0.0  71.561202  -45.135885  -156.08649  -19.012553  -64.263722  -4.810439  11.35803  9.256868  8.456183  9.250078  -3.014749  -0.351092  4.367346  27.016414  -15.624545  15.316674  13.708757  26.562652  3.887332  3.482207  0.34847  3.831837  3.624126  3.848835  11.089894  9.235647  11.134215  11.089894  9.235647  11.134215  -7.7118  26.929068  11.158204  175.898626  51.410841  -157.82569  -26.560582  -4.815215  108.747744  72.755006  -24.104132  3.756358  18.116962  -8.415036  22.78177  169.962925  68.110642  118.860177  -3.72567  -34.450261  -121.82652  63.358624  5.275946  -5.655874  12.675327  20.007586  20.171809  8.733138  15.444561  14.547927  
0.0  93.25843  0.0  72.299936  -44.382359  -157.823246  -16.785118  -61.420033  -4.630897  13.325957  7.50939  7.327344  7.368953  -3.036672  -0.021759  3.002373  28.147554  -15.577544  15.763435  13.368944  26.600883  3.933693  3.350492  0.173366  3.67086  3.59991  3.855554  10.644876  9.196774  11.126537  10.644876  9.196774  11.126538  -7.064344  27.854158  12.659306  176.100925  51.727255  -157.566424  -26.944574  -5.17523  108.200083  72.899865  -24.533353  3.817012  18.087595  -8.291497  23.904637  171.256111  68.794182  120.401205  -1.970576  -35.136937  -122.539826  62.902302  5.345786  -5.199405  13.622849  20.287146  20.89747  9.399683  15.703808  15.04408  
